<svg xmlns="http://www.w3.org/2000/svg" xml:space="preserve" fill="#fff" stroke="#fff" viewBox="0 0 925 925"><path d="M352.9 53.4h88.7c33.601 0 61.601 24 68 55.7h50.6C553.4 49.7 502.8 3.4 441.6 3.4h-88.7c-61.2 0-111.8 46.3-118.601 105.7H284.9c6.4-31.8 34.4-55.7 68-55.7zm-225.7 269c71.8 46.4 167.7 72 270.1 72s198.2-25.6 270.101-72C732 280.7 769.5 226.8 774.1 169.7c-17.3-21.7-43.9-35.6-73.9-35.6H94.4c-29.9 0-56.6 13.9-73.9 35.6 4.6 57.1 42.1 110.9 106.7 152.7zm235.9 138.7c0 15.601 12.7 28.3 28.301 28.3H403.1c15.601 0 28.301-12.699 28.301-28.3v-22.6H363.1z"/><path d="M94.4 617.201h419.5V553.5c0-7.699 3.1-15 8.6-20.4l95.7-94.1c5.399-5.3 12.6-8.2 20.1-8.2h156.2V243c-4.2 8.6-9 17.1-14.5 25.5-21.5 32.9-52.2 62.3-91 87.4-60.3 39-135.8 64.4-217.6 74.1v31c0 37.701-30.601 68.3-68.301 68.3H391.4c-37.7 0-68.301-30.6-68.301-68.3v-31c-81.8-9.601-157.3-35.101-217.6-74.1-38.8-25.1-69.5-54.5-91-87.4A234 234 0 0 1 0 243v279.8c0 52.1 42.3 94.401 94.4 94.401z"/><path d="M659.6 453.6c-13.399 0-26.5 5.5-36 15l-69.1 69.602c-9.5 9.6-14.7 22.199-14.7 35.699V870.9c0 2.4.2 4.801.5 7.1 3.4 24.6 24.601 43.6 50.2 43.6h283.8c27.9 0 50.7-22.699 50.7-50.699v-366.7c0-24.5-17.4-44.901-40.5-49.601-3.3-.7-6.7-1-10.1-1zm159.9 50h54.8c.4 0 .7.301.7.701v366.9c-.1.299-.3.5-.6.5H590.5c-.4 0-.7-.301-.7-.701V584.201h36.7c22.9 0 41.5-18.602 41.5-41.5V503.6z"/><path d="M750 617.301H641.1c-9.199 0-17.199 5-21.6 12.4-2.2 3.699-3.4 7.898-3.4 12.5v.1c0 13.799 11.2 25 25 25h182.7c13.8 0 25-11.201 25-25 0-13.801-11.2-25-25-25zm73.8 157.5H641.1c-13.8 0-25 11.199-25 25 0 13.799 11.2 25 25 25h182.7c13.8 0 25-11.201 25-25 0-13.801-11.2-25-25-25zm0-78.701H641.1c-13.8 0-25 11.201-25 25 0 13.801 11.2 25 25 25h182.7c13.8 0 25-11.199 25-25 0-13.799-11.2-25-25-25z"/></svg>