<svg xmlns="http://www.w3.org/2000/svg" xml:space="preserve" viewBox="0 0 512 512"><path d="M456 108h-96V92c0-30.878-25.122-56-56-56h-96c-30.878 0-56 25.122-56 56v16H56c-30.878 0-56 25.122-56 56v256c0 30.878 25.122 56 56 56h400c30.878 0 56-25.122 56-56V164c0-30.878-25.122-56-56-56M168 92c0-22.056 17.944-40 40-40h96c22.056 0 40 17.944 40 40v16H168zM56 124h400c22.056 0 40 17.944 40 40v59.585c-41.686 32.026-101.681 54.52-170.06 63.768C320.633 271.478 305.637 260 288 260h-64c-17.637 0-32.634 11.479-37.94 27.354-68.38-9.248-128.375-31.743-170.06-63.768V164c0-22.056 17.944-40 40-40m256 176c0 13.234-10.767 24-24 24h-64c-13.234 0-24-10.766-24-24s10.766-24 24-24h64c13.233 0 24 10.766 24 24m144 160H56c-22.056 0-40-17.944-40-40V243.391c43.234 29.947 102.056 50.936 168.143 59.849C185.799 323.785 203.036 340 224 340h64c20.964 0 38.201-16.215 39.857-36.76 66.086-8.912 124.909-29.902 168.143-59.849V420c0 22.056-17.944 40-40 40"/><path d="M440 156h16a8 8 0 0 0 0-16h-16a8 8 0 0 0 0 16m-120 0h88a8 8 0 0 0 0-16h-88a8 8 0 0 0 0 16"/></svg>