<svg xmlns="http://www.w3.org/2000/svg" width="1200" height="630" viewBox="0 0 1200 630">
  <defs>
    <linearGradient id="bg" x1="0" y1="0" x2="1" y2="1">
      <stop offset="0%" stop-color="#010408"/>
      <stop offset="100%" stop-color="#0d1117"/>
    </linearGradient>
    <linearGradient id="accent" x1="0" y1="0" x2="1" y2="0">
      <stop offset="0%" stop-color="#2ea043"/>
      <stop offset="100%" stop-color="#238636"/>
    </linearGradient>
  </defs>

  <rect width="1200" height="630" fill="url(#bg)"/>

  <!-- Accent rail along the left edge -->
  <rect x="0" y="0" width="12" height="630" fill="url(#accent)"/>

  <!-- Subtle grid texture, faint -->
  <g stroke="#30363d" stroke-width="1" opacity="0.18">
    <line x1="0" y1="120" x2="1200" y2="120"/>
    <line x1="0" y1="510" x2="1200" y2="510"/>
  </g>

  <!-- Top label -->
  <text x="80" y="180" fill="#2ea043" font-family="Roboto, system-ui, -apple-system, Segoe UI, sans-serif" font-size="28" font-weight="700" letter-spacing="3">PORTFOLIO · CV</text>

  <!-- Main name -->
  <text x="80" y="300" fill="#f0f6fc" font-family="Roboto, system-ui, -apple-system, Segoe UI, sans-serif" font-size="84" font-weight="700">Gonzalo Alvarez</text>
  <text x="80" y="395" fill="#f0f6fc" font-family="Roboto, system-ui, -apple-system, Segoe UI, sans-serif" font-size="84" font-weight="700">Campos</text>

  <!-- Role line -->
  <text x="80" y="465" fill="#c9d1d9" font-family="Roboto, system-ui, -apple-system, Segoe UI, sans-serif" font-size="36" font-weight="400">Software Engineer</text>

  <!-- Bottom URL bar -->
  <text x="80" y="560" fill="#8b949e" font-family="Roboto, system-ui, -apple-system, Segoe UI, sans-serif" font-size="24" font-weight="400">gonzalo-alvarez-campos-cv.com</text>

  <!-- Decorative chip strip in the bottom-right -->
  <g transform="translate(720, 530)" font-family="Roboto, system-ui, -apple-system, Segoe UI, sans-serif" font-size="18" font-weight="700">
    <rect x="0" y="0" width="74" height="34" rx="10" fill="#161b22" stroke="#30363d"/>
    <text x="37" y="22" fill="#f0f6fc" text-anchor="middle">React</text>

    <rect x="84" y="0" width="106" height="34" rx="10" fill="#161b22" stroke="#30363d"/>
    <text x="137" y="22" fill="#f0f6fc" text-anchor="middle">TypeScript</text>

    <rect x="200" y="0" width="80" height="34" rx="10" fill="#161b22" stroke="#30363d"/>
    <text x="240" y="22" fill="#f0f6fc" text-anchor="middle">Remix</text>

    <rect x="290" y="0" width="74" height="34" rx="10" fill="#161b22" stroke="#30363d"/>
    <text x="327" y="22" fill="#f0f6fc" text-anchor="middle">Python</text>

    <rect x="374" y="0" width="56" height="34" rx="10" fill="transparent" stroke="#2ea043" stroke-dasharray="0"/>
    <text x="402" y="22" fill="#2ea043" text-anchor="middle">+18</text>
  </g>
</svg>
